<mxfile host="app.diagrams.net" modified="2024-01-21T19:40:12.428Z" agent="Mozilla/5.0 (Windows NT 10.0; Win64; x64) AppleWebKit/537.36 (KHTML, like Gecko) Chrome/120.0.0.0 Safari/537.36" etag="LnjGFNTZZeN_jD-3fs7p" version="22.1.21" type="device">
  <diagram name="Страница — 1" id="m2Eqr0Ox3yp92an3G3m0">
    <mxGraphModel dx="2625" dy="1325" grid="1" gridSize="10" guides="1" tooltips="1" connect="1" arrows="1" fold="1" page="1" pageScale="1" pageWidth="827" pageHeight="1169" math="0" shadow="0">
      <root>
        <mxCell id="0" />
        <mxCell id="1" parent="0" />
        <mxCell id="GZ93I-lC93GSxr-qMmVg-1" value="Zone 1" style="swimlane;horizontal=0;whiteSpace=wrap;html=1;fillColor=#dae8fc;strokeColor=#6c8ebf;" vertex="1" parent="1">
          <mxGeometry x="40" y="40" width="650" height="430" as="geometry" />
        </mxCell>
        <mxCell id="GZ93I-lC93GSxr-qMmVg-3" value="Node 1" style="swimlane;whiteSpace=wrap;html=1;fillColor=#fff2cc;strokeColor=#d6b656;" vertex="1" parent="GZ93I-lC93GSxr-qMmVg-1">
          <mxGeometry x="50" y="10" width="266" height="330" as="geometry" />
        </mxCell>
        <mxCell id="GZ93I-lC93GSxr-qMmVg-4" value="postgres" style="rounded=0;whiteSpace=wrap;html=1;" vertex="1" parent="GZ93I-lC93GSxr-qMmVg-3">
          <mxGeometry x="73" y="50" width="120" height="60" as="geometry" />
        </mxCell>
        <mxCell id="GZ93I-lC93GSxr-qMmVg-5" value="patroni" style="rounded=0;whiteSpace=wrap;html=1;" vertex="1" parent="GZ93I-lC93GSxr-qMmVg-3">
          <mxGeometry x="73" y="130" width="120" height="60" as="geometry" />
        </mxCell>
        <mxCell id="GZ93I-lC93GSxr-qMmVg-6" value="etcd" style="rounded=0;whiteSpace=wrap;html=1;" vertex="1" parent="GZ93I-lC93GSxr-qMmVg-3">
          <mxGeometry x="73" y="210" width="120" height="60" as="geometry" />
        </mxCell>
        <mxCell id="GZ93I-lC93GSxr-qMmVg-7" value="&lt;b&gt;nofailover: false&lt;br&gt;nosynch: false&lt;/b&gt;" style="text;html=1;strokeColor=none;fillColor=none;align=center;verticalAlign=middle;whiteSpace=wrap;rounded=0;" vertex="1" parent="GZ93I-lC93GSxr-qMmVg-3">
          <mxGeometry x="84.5" y="290" width="97" height="30" as="geometry" />
        </mxCell>
        <mxCell id="GZ93I-lC93GSxr-qMmVg-8" value="Node 2" style="swimlane;whiteSpace=wrap;html=1;fillColor=#f8cecc;strokeColor=#b85450;" vertex="1" parent="GZ93I-lC93GSxr-qMmVg-1">
          <mxGeometry x="350" y="10" width="270" height="280" as="geometry" />
        </mxCell>
        <mxCell id="GZ93I-lC93GSxr-qMmVg-9" value="postgres" style="rounded=0;whiteSpace=wrap;html=1;" vertex="1" parent="GZ93I-lC93GSxr-qMmVg-8">
          <mxGeometry x="75" y="50" width="120" height="60" as="geometry" />
        </mxCell>
        <mxCell id="GZ93I-lC93GSxr-qMmVg-10" value="patroni" style="rounded=0;whiteSpace=wrap;html=1;" vertex="1" parent="GZ93I-lC93GSxr-qMmVg-8">
          <mxGeometry x="75" y="130" width="120" height="60" as="geometry" />
        </mxCell>
        <mxCell id="GZ93I-lC93GSxr-qMmVg-12" value="&lt;b&gt;nofailover: true&lt;br&gt;nosynch: true&lt;br&gt;clonefrom: true&lt;br&gt;replicatefrom: Node 1&lt;br&gt;&lt;/b&gt;" style="text;html=1;strokeColor=none;fillColor=none;align=center;verticalAlign=middle;whiteSpace=wrap;rounded=0;" vertex="1" parent="GZ93I-lC93GSxr-qMmVg-8">
          <mxGeometry x="67.25" y="220" width="135.5" height="30" as="geometry" />
        </mxCell>
        <mxCell id="GZ93I-lC93GSxr-qMmVg-44" style="edgeStyle=orthogonalEdgeStyle;rounded=0;orthogonalLoop=1;jettySize=auto;html=1;exitX=0.5;exitY=0.5;exitDx=0;exitDy=0;exitPerimeter=0;entryX=0;entryY=0.5;entryDx=0;entryDy=0;" edge="1" parent="GZ93I-lC93GSxr-qMmVg-1" source="GZ93I-lC93GSxr-qMmVg-15" target="GZ93I-lC93GSxr-qMmVg-9">
          <mxGeometry relative="1" as="geometry">
            <Array as="points">
              <mxPoint x="370" y="340" />
              <mxPoint x="370" y="90" />
            </Array>
          </mxGeometry>
        </mxCell>
        <mxCell id="GZ93I-lC93GSxr-qMmVg-15" value="&lt;b style=&quot;font-size: 14px;&quot;&gt;OLAP&lt;br&gt;Backup&lt;br&gt;&lt;/b&gt;" style="shape=umlActor;verticalLabelPosition=bottom;verticalAlign=top;html=1;outlineConnect=0;" vertex="1" parent="GZ93I-lC93GSxr-qMmVg-1">
          <mxGeometry x="470" y="310" width="30" height="60" as="geometry" />
        </mxCell>
        <mxCell id="GZ93I-lC93GSxr-qMmVg-17" value="Zone 2" style="swimlane;horizontal=0;whiteSpace=wrap;html=1;fillColor=#e1d5e7;strokeColor=#9673a6;" vertex="1" parent="1">
          <mxGeometry x="40" y="520" width="650" height="430" as="geometry" />
        </mxCell>
        <mxCell id="GZ93I-lC93GSxr-qMmVg-18" value="Node 3" style="swimlane;whiteSpace=wrap;html=1;fillColor=#fff2cc;strokeColor=#d6b656;" vertex="1" parent="GZ93I-lC93GSxr-qMmVg-17">
          <mxGeometry x="50" y="10" width="266" height="330" as="geometry" />
        </mxCell>
        <mxCell id="GZ93I-lC93GSxr-qMmVg-19" value="postgres" style="rounded=0;whiteSpace=wrap;html=1;" vertex="1" parent="GZ93I-lC93GSxr-qMmVg-18">
          <mxGeometry x="73" y="50" width="120" height="60" as="geometry" />
        </mxCell>
        <mxCell id="GZ93I-lC93GSxr-qMmVg-20" value="patroni" style="rounded=0;whiteSpace=wrap;html=1;" vertex="1" parent="GZ93I-lC93GSxr-qMmVg-18">
          <mxGeometry x="73" y="130" width="120" height="60" as="geometry" />
        </mxCell>
        <mxCell id="GZ93I-lC93GSxr-qMmVg-21" value="etcd" style="rounded=0;whiteSpace=wrap;html=1;" vertex="1" parent="GZ93I-lC93GSxr-qMmVg-18">
          <mxGeometry x="73" y="210" width="120" height="60" as="geometry" />
        </mxCell>
        <mxCell id="GZ93I-lC93GSxr-qMmVg-22" value="&lt;b&gt;nofailover: false&lt;br&gt;nosynch: false&lt;/b&gt;" style="text;html=1;strokeColor=none;fillColor=none;align=center;verticalAlign=middle;whiteSpace=wrap;rounded=0;" vertex="1" parent="GZ93I-lC93GSxr-qMmVg-18">
          <mxGeometry x="84.5" y="290" width="97" height="30" as="geometry" />
        </mxCell>
        <mxCell id="GZ93I-lC93GSxr-qMmVg-23" value="Node 4" style="swimlane;whiteSpace=wrap;html=1;fillColor=#f8cecc;strokeColor=#b85450;" vertex="1" parent="GZ93I-lC93GSxr-qMmVg-17">
          <mxGeometry x="350" y="10" width="270" height="280" as="geometry" />
        </mxCell>
        <mxCell id="GZ93I-lC93GSxr-qMmVg-24" value="postgres" style="rounded=0;whiteSpace=wrap;html=1;" vertex="1" parent="GZ93I-lC93GSxr-qMmVg-23">
          <mxGeometry x="75" y="50" width="120" height="60" as="geometry" />
        </mxCell>
        <mxCell id="GZ93I-lC93GSxr-qMmVg-25" value="patroni" style="rounded=0;whiteSpace=wrap;html=1;" vertex="1" parent="GZ93I-lC93GSxr-qMmVg-23">
          <mxGeometry x="75" y="130" width="120" height="60" as="geometry" />
        </mxCell>
        <mxCell id="GZ93I-lC93GSxr-qMmVg-27" value="&lt;b&gt;nofailover: true&lt;br&gt;nosynch: true&lt;br&gt;clonefrom: true&lt;br&gt;replicatefrom: Node 3&lt;br&gt;&lt;/b&gt;" style="text;html=1;strokeColor=none;fillColor=none;align=center;verticalAlign=middle;whiteSpace=wrap;rounded=0;" vertex="1" parent="GZ93I-lC93GSxr-qMmVg-23">
          <mxGeometry x="67.25" y="220" width="135.5" height="30" as="geometry" />
        </mxCell>
        <mxCell id="GZ93I-lC93GSxr-qMmVg-43" style="edgeStyle=orthogonalEdgeStyle;rounded=0;orthogonalLoop=1;jettySize=auto;html=1;exitX=0.5;exitY=0.5;exitDx=0;exitDy=0;exitPerimeter=0;entryX=0;entryY=0.5;entryDx=0;entryDy=0;" edge="1" parent="GZ93I-lC93GSxr-qMmVg-17" source="GZ93I-lC93GSxr-qMmVg-28" target="GZ93I-lC93GSxr-qMmVg-24">
          <mxGeometry relative="1" as="geometry">
            <Array as="points">
              <mxPoint x="370" y="340" />
              <mxPoint x="370" y="90" />
            </Array>
          </mxGeometry>
        </mxCell>
        <mxCell id="GZ93I-lC93GSxr-qMmVg-28" value="&lt;b style=&quot;font-size: 14px;&quot;&gt;OLAP&lt;br&gt;Backup&lt;br&gt;&lt;/b&gt;" style="shape=umlActor;verticalLabelPosition=bottom;verticalAlign=top;html=1;outlineConnect=0;" vertex="1" parent="GZ93I-lC93GSxr-qMmVg-17">
          <mxGeometry x="481" y="310" width="30" height="60" as="geometry" />
        </mxCell>
        <mxCell id="GZ93I-lC93GSxr-qMmVg-31" value="Node 5" style="swimlane;whiteSpace=wrap;html=1;fillColor=#d5e8d4;strokeColor=#82b366;" vertex="1" parent="1">
          <mxGeometry x="760" y="430" width="270" height="260" as="geometry" />
        </mxCell>
        <mxCell id="GZ93I-lC93GSxr-qMmVg-34" value="etcd" style="rounded=0;whiteSpace=wrap;html=1;" vertex="1" parent="GZ93I-lC93GSxr-qMmVg-31">
          <mxGeometry x="73" y="120" width="120" height="60" as="geometry" />
        </mxCell>
        <mxCell id="GZ93I-lC93GSxr-qMmVg-35" value="&lt;b&gt;nofailover: true&lt;br&gt;nosynch: true&lt;br&gt;clonefrom: true&lt;br&gt;&lt;/b&gt;" style="text;html=1;strokeColor=none;fillColor=none;align=center;verticalAlign=middle;whiteSpace=wrap;rounded=0;" vertex="1" parent="GZ93I-lC93GSxr-qMmVg-31">
          <mxGeometry x="65.25" y="200" width="135.5" height="30" as="geometry" />
        </mxCell>
        <mxCell id="GZ93I-lC93GSxr-qMmVg-37" value="proxy" style="rounded=0;whiteSpace=wrap;html=1;" vertex="1" parent="GZ93I-lC93GSxr-qMmVg-31">
          <mxGeometry x="73" y="40" width="120" height="60" as="geometry" />
        </mxCell>
        <mxCell id="GZ93I-lC93GSxr-qMmVg-40" style="edgeStyle=orthogonalEdgeStyle;rounded=0;orthogonalLoop=1;jettySize=auto;html=1;exitX=0.5;exitY=0.5;exitDx=0;exitDy=0;exitPerimeter=0;entryX=1;entryY=0.5;entryDx=0;entryDy=0;" edge="1" parent="1" source="GZ93I-lC93GSxr-qMmVg-30" target="GZ93I-lC93GSxr-qMmVg-37">
          <mxGeometry relative="1" as="geometry" />
        </mxCell>
        <mxCell id="GZ93I-lC93GSxr-qMmVg-30" value="&lt;b style=&quot;font-size: 14px;&quot;&gt;OLTP&lt;br&gt;&lt;/b&gt;" style="shape=umlActor;verticalLabelPosition=bottom;verticalAlign=top;html=1;outlineConnect=0;" vertex="1" parent="1">
          <mxGeometry x="1088" y="470" width="30" height="60" as="geometry" />
        </mxCell>
        <mxCell id="GZ93I-lC93GSxr-qMmVg-45" style="edgeStyle=orthogonalEdgeStyle;rounded=0;orthogonalLoop=1;jettySize=auto;html=1;exitX=0;exitY=0.5;exitDx=0;exitDy=0;entryX=1;entryY=0.5;entryDx=0;entryDy=0;" edge="1" parent="1" source="GZ93I-lC93GSxr-qMmVg-37" target="GZ93I-lC93GSxr-qMmVg-20">
          <mxGeometry relative="1" as="geometry">
            <Array as="points">
              <mxPoint x="320" y="500" />
              <mxPoint x="320" y="690" />
            </Array>
          </mxGeometry>
        </mxCell>
        <mxCell id="GZ93I-lC93GSxr-qMmVg-46" style="edgeStyle=orthogonalEdgeStyle;rounded=0;orthogonalLoop=1;jettySize=auto;html=1;exitX=0;exitY=0.5;exitDx=0;exitDy=0;entryX=1;entryY=0.5;entryDx=0;entryDy=0;" edge="1" parent="1" source="GZ93I-lC93GSxr-qMmVg-37" target="GZ93I-lC93GSxr-qMmVg-5">
          <mxGeometry relative="1" as="geometry">
            <Array as="points">
              <mxPoint x="320" y="500" />
              <mxPoint x="320" y="210" />
            </Array>
          </mxGeometry>
        </mxCell>
      </root>
    </mxGraphModel>
  </diagram>
</mxfile>
